<?xml version="1.0" encoding="utf-8"?>
<!-- Generator: Adobe Illustrator 27.0.1, SVG Export Plug-In . SVG Version: 6.00 Build 0)  -->
<svg version="1.1" xmlns="http://www.w3.org/2000/svg" xmlns:xlink="http://www.w3.org/1999/xlink" x="0px" y="0px"
	 viewBox="0 0 1993.5 1947.1" style="enable-background:new 0 0 1993.5 1947.1;" xml:space="preserve">
<style type="text/css">
	.st0{fill:#881421;}
	.st1{fill:#AF2031;}
	.st2{fill:#C94F60;}
	.st3{fill:#E08095;}
	.st4{opacity:0.1;enable-background:new    ;}
	.st5{opacity:0.2;enable-background:new    ;}
	.st6{fill:url(#SVGID_1_);}
	.st7{display:none;fill:#FFFFFF;}
	.st8{fill-rule:evenodd;clip-rule:evenodd;fill:#FFFFFF;}
	.st9{fill-rule:evenodd;clip-rule:evenodd;fill:#1FB35B;}
	.st10{fill-rule:evenodd;clip-rule:evenodd;fill:#198043;}
	.st11{fill-rule:evenodd;clip-rule:evenodd;fill:#AFBDC7;}
</style>
<g id="Calque_1">
	<path class="st0" d="M463.6,1251.7v463.6c0,128,342.5,231.8,764.9,231.8s764.9-103.8,764.9-231.8v-463.6H463.6z"/>
	<path class="st1" d="M463.6,741.8v510c0,128,342.5,231.8,764.9,231.8s764.9-103.8,764.9-231.8v-510H463.6z"/>
	<path class="st2" d="M463.6,231.8v510c0,128,342.5,231.8,764.9,231.8s764.9-103.8,764.9-231.8v-510H463.6z"/>
	<ellipse class="st3" cx="1228.5" cy="231.8" rx="764.9" ry="231.8"/>
	<path class="st4" d="M1027.7,417.2H463.6v1159h564.1c46.9-0.2,84.8-38.1,85-85v-989C1112.5,455.3,1074.5,417.4,1027.7,417.2z"/>
	<path class="st5" d="M981.3,463.6H463.6v1159h517.7c46.9-0.2,84.8-38.1,85-85v-989C1066.1,501.7,1028.2,463.8,981.3,463.6z"/>
	<path class="st5" d="M981.3,463.6H463.6v1066.3h517.7c46.9-0.2,84.8-38.1,85-85V548.6C1066.1,501.7,1028.2,463.8,981.3,463.6z"/>
	<path class="st5" d="M934.9,463.6H463.6v1066.3h471.3c46.9-0.2,84.8-38.1,85-85V548.6C1019.8,501.7,981.8,463.8,934.9,463.6
		L934.9,463.6z"/>
	
		<linearGradient id="SVGID_1_" gradientUnits="userSpaceOnUse" x1="177.1811" y1="-875.9208" x2="842.7399" y2="276.7994" gradientTransform="matrix(1 0 0 1 0 1273.1207)">
		<stop  offset="0" style="stop-color:#B72C3F"/>
		<stop  offset="0.5" style="stop-color:#B12334"/>
		<stop  offset="1" style="stop-color:#9D1623"/>
	</linearGradient>
	<path class="st6" d="M85,463.6h850c46.9,0,85,38,85,85v850c0,46.9-38,85-85,85H85c-46.9,0-85-38-85-85v-850
		C0,501.6,38,463.6,85,463.6z"/>
	<path class="st7" d="M448.9,697.3h125.2l201.1,552.5H657L612.6,1118H405.7l-43.5,131.8H244.7L448.9,697.3L448.9,697.3z M586,1032.9
		l-64.3-200c-5.3-14.7-9.2-29.8-11.8-45.1h-2.3c-2.4,15.8-6.3,31.3-11.5,46.4L431.2,1033L586,1032.9L586,1032.9z"/>
</g>
<g id="Calque_2">
	<g>
		<path class="st8" d="M195.9,1052.2c214.8,37.2,429.6,36,644.4,0V753.7c0-3.3-1.2-6.7-3.1-9.4L695.7,555.6c-3-3.9-7.7-6.3-12.6-6.3
			h-440c-12.6,0-24.6,4.9-33.2,13.8c-8.9,8.9-13.8,20.8-13.8,33.2v361.5c0,23.4-5.5,43.1-5.5,58.8
			C190.4,1038.7,195.9,1052.2,195.9,1052.2L195.9,1052.2z"/>
		<path class="st9" d="M101.5,1011.5v339.3c0,12.6,4.9,24.6,13.8,33.2c8.9,8.9,20.8,13.8,33.2,13.8h722.8c12.6,0,24.6-4.9,33.2-13.8
			c8.9-8.9,13.8-20.8,13.8-33.2c0-60.2,0-191.2,0-251.4c0-12.6-4.9-24.6-13.8-33.2c-8.9-8.9-20.8-13.8-33.2-13.8H164.5
			C144.4,1052.2,101.5,1011.5,101.5,1011.5L101.5,1011.5z"/>
		<path class="st10" d="M148.7,1052.2c-14.4,0-24.8-5.9-32.5-13c-7.3-6.7-14.6-18.7-14.6-34.2c0-10,4.9-24.6,13.8-33.2
			c8.9-8.9,20.8-13.8,33.2-13.8h47.2v94.2C195.9,1052.2,199.9,1052.2,148.7,1052.2z"/>
		<path class="st11" d="M683.1,549.3v157.2c-0.6,25.4,21.8,47.6,47.2,47.2h110c0-3.3-1.2-6.7-3.1-9.4L695.7,555.6
			C692.8,551.7,688.1,549.3,683.1,549.3z"/>
		<path class="st9" d="M337.4,769.4h204.4c8.7,0,15.7-7.1,15.7-15.7s-7.1-15.7-15.7-15.7H337.4c-8.7,0-15.7,7.1-15.7,15.7
			S328.7,769.4,337.4,769.4L337.4,769.4z"/>
		<path class="st9" d="M337.4,863.8h361.5c8.7,0,15.7-7.1,15.7-15.7s-7.1-15.7-15.7-15.7H337.4c-8.7,0-15.7,7.1-15.7,15.7
			S328.7,863.8,337.4,863.8L337.4,863.8z"/>
		<path class="st9" d="M337.4,958h361.5c8.7,0,15.7-7.1,15.7-15.7s-7.1-15.7-15.7-15.7H337.4c-8.7,0-15.7,7.1-15.7,15.7
			S328.7,958,337.4,958L337.4,958z"/>
		<g>
			<path class="st8" d="M597.8,1152.4l62.9,157.2c2.4,5.9,8.3,9.8,14.6,9.8c6.5,0,12.2-3.9,14.6-9.8l62.9-157.2
				c3.1-8.1-0.8-17.1-8.9-20.5c-8.1-3.1-17.1,0.8-20.5,8.9l-48.2,120.8l-48.4-120.8c-3.1-8.1-12.4-12-20.5-8.9
				C598.6,1135.2,594.6,1144.3,597.8,1152.4L597.8,1152.4z"/>
			<path class="st8" d="M354.1,1130.9h-9c-43.5,0-78.5,35.2-78.5,78.5v31.5c0,43.5,35.2,78.5,78.5,78.5h9
				c28.1,0,53.5-16.3,65.1-41.9c1.6-3.5,2-4.1,3-6.5c4.1-9-0.8-17.5-6.7-20.5c-9.8-4.9-18.9,0.6-21.8,7.3c-1,2.2-3,6.5-3,6.5
				c-6.5,14.4-20.8,23.4-36.6,23.4h-9c-26,0-47.2-21-47.2-47.2V1209c0-26,21-47.2,47.2-47.2h9c15.7,0,30.1,9.2,36.6,23.4
				c0,0,2,4.3,3,6.5c4.7,9.8,15.9,11.2,23,6.7c4.9-3.1,9.6-11,5.7-19.9c-3-6.5-3-6.5-3-6.5C407.6,1147.2,382.2,1130.9,354.1,1130.9
				L354.1,1130.9z"/>
			<path class="st8" d="M447.3,1264.5L447.3,1264.5v7.9c0,12.6,4.9,24.4,13.8,33.2c8.9,8.9,20.8,13.8,33.2,13.8h35.4
				c12.6,0,24.4-4.9,33.2-13.8c8.9-8.9,13.8-20.8,13.8-33.2c0-2.2,0-4.1,0-6.3c0-19.3-11.8-36.6-29.7-43.9l-57.2-22.8
				c-6.9-2.8-11.4-9.4-11.4-16.9v-4.5c0-4.1,1.6-8.3,4.5-11c3-3,6.9-4.5,11-4.5h35.4c4.1,0,8.3,1.6,11,4.5c3,3,4.5,6.9,4.5,11v7.7
				c0,4.5,2,8.5,3.9,10.4c3.1,3.5,7.5,5.3,11.8,5.3c7.7,0,15.7-5.9,15.7-15.7v-7.7c0-12.6-4.9-24.6-13.8-33.2
				c-8.9-8.9-20.8-13.8-33.2-13.8h-35.4c-12.6,0-24.6,4.9-33.2,13.8c-8.9,8.9-13.8,20.8-13.8,33.2v4.5c0,20.3,12.4,38.6,31.3,46
				l57.2,22.8c5.9,2.4,9.8,8.3,9.8,14.6v6.3c0,4.1-1.6,8.1-4.5,11c-3,3-6.9,4.5-11,4.5h-35.4c-4.1,0-8.1-1.6-11-4.5
				c-3-3-4.5-6.9-4.5-11c0,0,0,0,0-7.9c0-10.4-8.5-15.7-15.5-15.7C456.8,1248.7,447.3,1253.8,447.3,1264.5L447.3,1264.5z"/>
		</g>
	</g>
</g>
</svg>
